<svg width="0" height="0" class="hidden">
<symbol xmlns="http://www.w3.org/2000/svg" viewBox="0 0 20 20" id="download">
<path d="M10 0C10.5523 0 11 0.447715 11 1V10.5858L14.2929 7.29289C14.6834 6.90237 15.3166 6.90237 15.7071 7.29289C16.0976 7.68342 16.0976 8.31658 15.7071 8.70711L10.7071 13.7071C10.3166 14.0976 9.68342 14.0976 9.29289 13.7071L4.29289 8.70711C3.90237 8.31658 3.90237 7.68342 4.29289 7.29289C4.68342 6.90237 5.31658 6.90237 5.70711 7.29289L9 10.5858V1C9 0.447715 9.44771 0 10 0ZM1 10C1.55228 10 2 10.4477 2 11V15C2 16.6569 3.34315 18 5 18H15C16.6569 18 18 16.6569 18 15V11C18 10.4477 18.4477 10 19 10C19.5523 10 20 10.4477 20 11V15C20 17.7614 17.7614 20 15 20H5C2.23858 20 0 17.7614 0 15V11C0 10.4477 0.447715 10 1 10Z"/>
</symbol>
<symbol xmlns="http://www.w3.org/2000/svg" viewBox="0 0 14 22" id="phone">
<path fill-rule="evenodd" clip-rule="evenodd" d="M11.3077 0H2.69231C1.20615 0 0 1.12 0 2.5V19.5C0 20.88 1.20615 22 2.69231 22H11.3077C12.7938 22 14 20.88 14 19.5V2.5C14 1.12 12.7938 0 11.3077 0ZM7 21C6.17 21 5.5 20.33 5.5 19.5C5.5 18.67 6.17 18 7 18C7.83 18 8.5 18.67 8.5 19.5C8.5 20.33 7.83 21 7 21ZM12 17H2V3H12V17Z" fill="black" fill-opacity="0.2"/>
</symbol>
<symbol xmlns="http://www.w3.org/2000/svg" viewBox="0 0 19 20" id="user">
<path d="M12 5C12 3.34314 10.6569 2 9 2C7.34314 2 6 3.34314 6 5C6 6.65686 7.34314 8 9 8C10.6569 8 12 6.65686 12 5ZM14 5C14 7.76142 11.7614 10 9 10C6.23857 10 4 7.76142 4 5C4 2.23858 6.23857 0 9 0C11.7614 0 14 2.23858 14 5ZM18 16.9283C18.122 18.6085 16.7389 20 15.0507 20L2.95681 20C1.26854 20 -0.114524 18.6085 0.00750184 16.9283C0.286783 13.0828 4.26692 11 9.00006 11C13.7239 11 17.7183 13.0499 18 16.9283ZM16.005 17.0732C15.7951 14.1819 12.6055 13 8.99985 13C5.37245 13 2.20898 14.2238 2.00204 17.0732C1.96645 17.5633 2.4005 18 2.95661 18L15.0505 18C15.6066 18 16.0406 17.5633 16.005 17.0732Z" fill="black" fill-opacity="0.2"/>
</symbol>
<symbol xmlns="http://www.w3.org/2000/svg" viewBox="0 0 22 18" id="mail">
<path d="M3 0C1.5 0 0 1.5 0 3V15C0 16.5 1.5 18 3 18H19C20.5 18 22 16.5 22 15V3C22 1.5 20.5 0 19 0H3ZM20 5.35341L11 9.40341L2 5.35341V3C2 2.44772 2.44772 2 3 2H19C19.5523 2 20 2.44772 20 3V5.35341ZM20 7.54659V15C20 15.5523 19.5523 16 19 16H3C2.44772 16 2 15.5523 2 15V7.54659L10.1793 11.2273C10.7012 11.4621 11.2988 11.4621 11.8207 11.2273L20 7.54659Z" fill="black" fill-opacity="0.2"/>
</symbol>
<symbol fill="none" xmlns="http://www.w3.org/2000/svg" viewBox="0 0 8 14" id="arrow-right">
<path d="M5.24264 6.99999L0.292893 2.05025C-0.0976309 1.65972 -0.0976309 1.02656 0.292893 0.636033C0.683418 0.245508 1.31658 0.245508 1.70711 0.636033L7.36396 6.29289C7.75448 6.68341 7.75448 7.31658 7.36396 7.7071L1.70711 13.364C1.31658 13.7545 0.683418 13.7545 0.292893 13.364C-0.0976309 12.9734 -0.0976309 12.3403 0.292893 11.9497L5.24264 6.99999Z" fill="black" fill-opacity="0.2"></path></symbol><symbol fill="none" xmlns="http://www.w3.org/2000/svg" viewBox="0 0 18 13" id="check"><path fill-rule="evenodd" clip-rule="evenodd" d="M17.692 0.278137C18.0907 0.660338 18.1041 1.29336 17.7219 1.69204L7.17641 12.692C6.98755 12.889 6.72638 13.0003 6.45347 13C6.18056 12.9997 5.91963 12.8879 5.73119 12.6905L0.276646 6.97619C-0.104693 6.57669 -0.0899723 5.9437 0.309526 5.56236C0.709024 5.18102 1.34202 5.19574 1.72336 5.59524L6.45611 10.5534L16.2781 0.307967C16.6603 -0.090708 17.2934 -0.104063 17.692 0.278137Z" fill="#0D870D"></path></symbol><symbol fill="none" xmlns="http://www.w3.org/2000/svg" viewBox="0 0 16 33" id="fb"><path d="M10.1269 32.6393V16.3178H14.6324L15.2295 10.6933H10.1269L10.1346 7.87813C10.1346 6.41117 10.274 5.62514 12.381 5.62514H15.1976V0H10.6915C5.27892 0 3.37384 2.72849 3.37384 7.31696V10.6939H0V16.3184H3.37384V32.6393H10.1269Z" fill="white"></path></symbol><symbol fill="none" xmlns="http://www.w3.org/2000/svg" viewBox="0 0 18 30" id="ok"><path d="M12.3003 7.74219C12.3003 5.97461 10.8108 4.53711 8.97951 4.53711C7.14992 4.53711 5.65896 5.97461 5.65896 7.74219C5.65896 9.5083 7.14992 10.9463 8.97951 10.9463C10.8108 10.9463 12.3003 9.5083 12.3003 7.74219ZM16.9995 7.74219C16.9995 12.0098 13.4036 15.4814 8.97976 15.4814C4.55666 15.4814 0.959738 12.0098 0.959738 7.74219C0.959738 3.47266 4.55666 0 8.97976 0C13.4036 0 16.9995 3.47266 16.9995 7.74219ZM16.9021 19.939C15.4519 20.8179 13.8775 21.4414 12.2449 21.8003L16.7283 26.1289C17.6467 27.0132 17.6467 28.4502 16.7283 29.3359C15.8108 30.2217 14.3238 30.2217 13.4072 29.3359L8.99929 25.0825L4.59499 29.3359C4.13576 29.7783 3.53396 29.9995 2.93239 29.9995C2.33156 29.9995 1.73073 29.7783 1.27151 29.3359C0.354024 28.4502 0.354026 27.0142 1.27053 26.1289L5.75442 21.8003C4.12185 21.4414 2.54738 20.8169 1.09743 19.939C2.02656e-05 19.271 -0.329813 17.8716 0.361593 16.8115C1.05129 15.7495 2.50149 15.4302 3.60085 16.0981C6.88405 18.0918 11.1135 18.0923 14.3987 16.0981C15.4981 15.4302 16.9475 15.7495 17.6387 16.8115C18.3301 17.8706 17.9995 19.271 16.9021 19.939Z" fill="white"></path></symbol><symbol fill="none" xmlns="http://www.w3.org/2000/svg" viewBox="0 0 53 58" id="play-btn"><path d="M48.3333 22.2642C53.5185 25.2579 53.5185 32.7421 48.3333 35.7358L11.6667 56.9053C6.48148 59.8989 -2.93552e-06 56.1569 -2.6738e-06 50.1695L-8.23107e-07 7.83049C-5.61392e-07 1.84316 6.48148 -1.89893 11.6667 1.09473L48.3333 22.2642Z" fill="white"></path></symbol><symbol fill="none" xmlns="http://www.w3.org/2000/svg" viewBox="0 0 35 37" id="shape"><path d="M34.4137 23.7174L26.2766 32.9563C25.1904 34.1866 23.6204 34.8926 21.9697 34.8932H9.71258L7.5839 37L0 29.6829L5.43615 24.3366C7.68798 22.1224 11.02 21.376 14.0157 22.4148L15.2136 22.8301H22.5533C23.1792 22.8298 23.7785 23.0807 24.2142 23.5254C24.6499 23.9702 24.8848 24.5707 24.8651 25.1899C24.7937 26.4474 23.7342 27.4261 22.4618 27.4099H18.048C17.7131 27.3883 17.3938 27.5529 17.2197 27.8369C17.0456 28.121 17.0456 28.4772 17.2197 28.7613C17.3938 29.0453 17.7131 29.2099 18.048 29.1883H22.4618C24.6998 29.191 26.5462 27.455 26.6581 25.2427C26.6581 25.2427 26.6581 25.205 26.6581 25.1861L30.7362 20.6554C31.5967 19.6672 33.0898 19.5226 34.1276 20.3269C34.6263 20.7348 34.9378 21.3244 34.9917 21.9625C35.0455 22.6006 34.8371 23.2333 34.4137 23.7174ZM31.2359 4.0087V4.4882C31.2359 5.01301 31.2359 5.55292 31.2588 6.13059C31.3084 8.67158 31.3618 11.6505 30.4958 14.4369C29.2945 18.2092 25.76 20.7745 21.7637 20.7745C17.7674 20.7745 14.2328 18.2092 13.0315 14.4369C12.1579 11.6543 12.2113 8.67913 12.2685 6.13059C12.2685 5.5567 12.2914 4.99791 12.2914 4.4882V4.0087C12.2914 3.61459 12.6142 3.2951 13.0124 3.2951H13.4969C16.6403 3.2951 18.9331 2.44182 20.9358 0.52758L21.2754 0.202877C21.5554 -0.0676258 22.0024 -0.0676258 22.2825 0.202877L22.622 0.52758C24.5943 2.44182 26.887 3.2951 30.038 3.2951H30.5225C30.9178 3.29924 31.2359 3.61752 31.2359 4.0087ZM26.0782 8.40728L25.1322 7.46338C24.8852 7.22052 24.4865 7.22052 24.2395 7.46338L20.6841 10.9823L19.2955 9.61548C19.046 9.37863 18.6522 9.37863 18.4028 9.61548L17.4491 10.5707C17.2037 10.8151 17.2037 11.2098 17.4491 11.4542L20.2301 14.2066C20.4771 14.4495 20.8758 14.4495 21.1228 14.2066L26.0821 9.29833C26.2018 9.1801 26.2687 9.01939 26.268 8.85202C26.2673 8.68464 26.199 8.5245 26.0782 8.40728Z" fill="#1EA01E"></path></symbol><symbol fill="none" xmlns="http://www.w3.org/2000/svg" viewBox="0 0 32 18" id="vk"><path d="M17.5693 17.8451C17.5693 17.8451 18.1469 17.7821 18.4427 17.4702C18.7134 17.1845 18.704 16.6452 18.704 16.6452C18.704 16.6452 18.668 14.1272 19.8591 13.7554C21.0329 13.3898 22.5402 16.1905 24.1397 17.2674C25.348 18.0817 26.2651 17.9035 26.2651 17.9035L30.5395 17.8451C30.5395 17.8451 32.7745 17.7099 31.7149 15.9846C31.6272 15.8433 31.0967 14.7079 28.5377 12.3758C25.8566 9.9346 26.2166 10.3294 29.4439 6.1061C31.4097 3.5343 32.1954 1.96419 31.9497 1.29281C31.7165 0.650634 30.2703 0.821165 30.2703 0.821165L25.4591 0.850355C25.4591 0.850355 25.1023 0.802729 24.8378 0.957897C24.5795 1.10999 24.412 1.46488 24.412 1.46488C24.412 1.46488 23.6514 3.45441 22.6356 5.14744C20.493 8.71784 19.6369 8.9068 19.2863 8.68557C18.4708 8.16784 18.6743 6.60847 18.6743 5.50079C18.6743 2.03946 19.2096 0.596863 17.6335 0.223537C17.1107 0.0990961 16.7257 0.0176702 15.3875 0.00384333C13.6706 -0.0130562 12.2182 0.00998953 11.3949 0.404823C10.8471 0.667533 10.4245 1.25441 10.6828 1.28821C11.0005 1.32969 11.7205 1.47871 12.1024 1.98877C12.5954 2.64785 12.5782 4.12578 12.5782 4.12578C12.5782 4.12578 12.8614 8.2001 11.9161 8.70555C11.2681 9.05275 10.3792 8.34451 8.46815 5.10442C7.48995 3.4452 6.75121 1.61083 6.75121 1.61083C6.75121 1.61083 6.60878 1.26823 6.35367 1.08388C6.04534 0.861108 5.61493 0.791975 5.61493 0.791975L1.04321 0.821165C1.04321 0.821165 0.356125 0.8396 0.104141 1.13304C-0.119672 1.39268 0.0869246 1.93192 0.0869246 1.93192C0.0869246 1.93192 3.66636 10.1528 7.72002 14.2962C11.4372 18.094 15.6567 17.8451 15.6567 17.8451H17.5693Z" fill="white"></path></symbol></svg>